<?xml version="1.0" encoding="utf-8"?>
<svg xmlns="http://www.w3.org/2000/svg" viewBox="0 0 32 32" width="512" height="512">
  <path d="M16.998047 5C15.352984 5 14 6.3555411 14 8C14 9.6449698 15.353588 11 16.998047 11C18.644643 11 20 9.6438551 20 8C20 6.3561449 18.644643 5 16.998047 5 z M 22 5L22 7L26 7L26 25L17 25L17 27L28 27L28 5L22 5 z M 16.998047 7C17.56545 7 18 7.4358551 18 8C18 8.5641449 17.56545 9 16.998047 9C16.434506 9 16 8.5650302 16 8C16 7.4364589 16.43511 7 16.998047 7 z M 10.285156 8.9980469C10.16375 8.9916109 10.042304 8.9953853 9.921875 9.0097656C9.4401578 9.0672866 8.9789273 9.2893893 8.6328125 9.6660156L5.2636719 13.322266L6.7363281 14.677734L10.105469 11.019531C10.139239 10.982781 10.176509 10.977629 10.21875 11.005859L11.806641 12.068359L9.4824219 15.322266C8.7464219 16.353266 8.8637656 17.764156 9.7597656 18.660156L13.294922 22.197266L10.890625 27L13.126953 27L15.083984 23.09375C15.469984 22.32375 15.319937 21.392203 14.710938 20.783203L11.173828 17.246094C10.968828 17.041094 10.942328 16.719375 11.111328 16.484375L13.470703 13.179688L14.279297 13.720703L15.871094 16.111328C16.241572 16.665052 16.867823 17 17.535156 17L20.585938 17L19.292969 18.292969L20.707031 19.707031L24.414062 16L20.707031 12.292969L19.292969 13.707031L20.585938 15L17.535156 15L17.533203 14.998047L15.720703 12.279297L11.330078 9.34375C11.011419 9.130834 10.649374 9.0173548 10.285156 8.9980469 z M 9.0585938 19.527344L7.5839844 21L4 21L4 23L7.5859375 23C8.1142074 23 8.6239197 22.791144 9 22.414062L9.0019531 22.412109L10.472656 20.941406L9.0585938 19.527344 z" />
</svg>